<svg xmlns="http://www.w3.org/2000/svg" xmlns:xlink="http://www.w3.org/1999/xlink" version="1.1" x="0px" y="0px" viewBox="0 0 70 75" style="enable-background:new 0 0 70 70;" xml:space="preserve"><style type="text/css">
	.st0{stroke:#2A3D4F;stroke-width:2;stroke-linecap:round;stroke-linejoin:round;stroke-miterlimit:10;}
	.st1{fill:#2A3D4F;}
</style><g><g><g><path d="M32.7734375,51.0703125c-10.0908203,0-18.3007813-8.2099609-18.3007813-18.3007813     c0-10.0849609,8.2099609-18.2900391,18.3007813-18.2900391s18.2998047,8.2050781,18.2998047,18.2900391     c0,3.1025391-0.7871094,6.1611328-2.2763672,8.8457031c-0.2675781,0.4824219-0.875,0.6591797-1.359375,0.3886719     c-0.4824219-0.2675781-0.6572266-0.8759766-0.3886719-1.359375c1.3242188-2.3876953,2.0244141-5.1103516,2.0244141-7.875     c0-8.9824219-7.3125-16.2900391-16.2998047-16.2900391c-8.9882813,0-16.3007813,7.3076172-16.3007813,16.2900391     c0,8.9882813,7.3125,16.3007813,16.3007813,16.3007813c2.7636719,0,5.4863281-0.7001953,7.8740234-2.0244141     c0.4853516-0.2705078,1.0917969-0.0947266,1.359375,0.3886719c0.2685547,0.4833984,0.09375,1.0917969-0.3886719,1.359375     C38.9335938,50.2832031,35.8759766,51.0703125,32.7734375,51.0703125z"/></g></g><g><g><path d="M49.9511719,60c-5.5410156,0-10.0498047-4.5107422-10.0498047-10.0556641     c0-5.5410156,4.5087891-10.0488281,10.0498047-10.0488281S60,44.4033203,60,49.9443359     C60,55.4892578,55.4921875,60,49.9511719,60z M49.9511719,41.8955078c-4.4384766,0-8.0498047,3.6103516-8.0498047,8.0488281     C41.9013672,54.3867188,45.5126953,58,49.9511719,58S58,54.3867188,58,49.9443359     C58,45.5058594,54.3896484,41.8955078,49.9511719,41.8955078z"/></g></g><g><g><path d="M32.7724609,55.5449219C20.2158203,55.5449219,10,45.3291016,10,32.7724609S20.2158203,10,32.7724609,10     s22.7724609,10.2158203,22.7724609,22.7724609c0,3.109375-0.6210938,6.1289063-1.8457031,8.9755859     c-0.2060547,0.4755859-0.7382813,0.7167969-1.2314453,0.5546875c-0.8212891-0.2705078-1.6679688-0.4072266-2.5166016-0.4072266     c-4.4384766,0-8.0498047,3.6103516-8.0498047,8.0488281c0,0.8486328,0.1376953,1.6972656,0.4082031,2.5205078     c0.1611328,0.4921875-0.0791016,1.0263672-0.5546875,1.2304688     C38.9072266,54.9228516,35.8857422,55.5449219,32.7724609,55.5449219z M32.7724609,12C21.3183594,12,12,21.3183594,12,32.7724609     s9.3183594,20.7724609,20.7724609,20.7724609c2.546875,0,5.0273438-0.4560547,7.3847656-1.3583984     c-0.1699219-0.7392578-0.2558594-1.4902344-0.2558594-2.2421875c0-5.5410156,4.5087891-10.0488281,10.0498047-10.0488281     c0.7519531,0,1.5009766,0.0859375,2.2382813,0.2548828c0.8994141-2.3564453,1.3554688-4.8339844,1.3554688-7.3779297     C53.5449219,21.3183594,44.2265625,12,32.7724609,12z"/></g></g><g><g><path d="M49.9511719,55.8144531c-1.8935547,0-3.4335938-1.5400391-3.4335938-3.4335938c0-0.5527344,0.4472656-1,1-1     s1,0.4472656,1,1c0,0.7900391,0.6435547,1.4335938,1.4335938,1.4335938s1.4335938-0.6435547,1.4335938-1.4335938     s-0.6435547-1.4326172-1.4335938-1.4326172c-1.8935547,0-3.4335938-1.5400391-3.4335938-3.4335938     s1.5400391-3.4335938,3.4335938-3.4335938s3.4335938,1.5400391,3.4335938,3.4335938c0,0.5527344-0.4472656,1-1,1     s-1-0.4472656-1-1c0-0.7900391-0.6435547-1.4335938-1.4335938-1.4335938s-1.4335938,0.6435547-1.4335938,1.4335938     s0.6435547,1.4335938,1.4335938,1.4335938c1.8935547,0,3.4335938,1.5400391,3.4335938,3.4326172     C53.3847656,54.2744141,51.8447266,55.8144531,49.9511719,55.8144531z"/></g></g><g><g><path d="M49.9511719,57.0888672c-0.5527344,0-1-0.4472656-1-1v-1.2744141c0-0.5527344,0.4472656-1,1-1s1,0.4472656,1,1v1.2744141     C50.9511719,56.6416016,50.5039063,57.0888672,49.9511719,57.0888672z"/></g></g><g><g><path d="M49.9511719,46.0810547c-0.5527344,0-1-0.4472656-1-1v-1.2744141c0-0.5527344,0.4472656-1,1-1s1,0.4472656,1,1v1.2744141     C50.9511719,45.6337891,50.5039063,46.0810547,49.9511719,46.0810547z"/></g></g><g><g><path d="M32.7724609,19.1796875c-0.5527344,0-1-0.4472656-1-1v-2.7041016c0-0.5527344,0.4472656-1,1-1s1,0.4472656,1,1v2.7041016     C33.7724609,18.7324219,33.3251953,19.1796875,32.7724609,19.1796875z"/></g></g><g><g><path d="M22.4541016,23.4541016c-0.2558594,0-0.5117188-0.0976563-0.7070313-0.2929688l-1.9121094-1.9121094     c-0.390625-0.390625-0.390625-1.0234375,0-1.4140625s1.0234375-0.390625,1.4140625,0l1.9121094,1.9121094     c0.390625,0.390625,0.390625,1.0234375,0,1.4140625C22.9658203,23.3564453,22.7099609,23.4541016,22.4541016,23.4541016z"/></g></g><g><g><path d="M18.1796875,33.7724609h-2.7041016c-0.5527344,0-1-0.4472656-1-1s0.4472656-1,1-1h2.7041016c0.5527344,0,1,0.4472656,1,1     S18.7324219,33.7724609,18.1796875,33.7724609z"/></g></g><g><g><path d="M20.5419922,46.0039063c-0.2558594,0-0.5117188-0.0976563-0.7070313-0.2929688     c-0.390625-0.390625-0.390625-1.0234375,0-1.4140625l1.9121094-1.9121094c0.390625-0.390625,1.0234375-0.390625,1.4140625,0     s0.390625,1.0234375,0,1.4140625l-1.9121094,1.9121094C21.0537109,45.90625,20.7978516,46.0039063,20.5419922,46.0039063z"/></g></g><g><g><path d="M32.7724609,51.0703125c-0.5527344,0-1-0.4472656-1-1v-2.7041016c0-0.5527344,0.4472656-1,1-1s1,0.4472656,1,1v2.7041016     C33.7724609,50.6230469,33.3251953,51.0703125,32.7724609,51.0703125z"/></g></g><g><g><path d="M50.0703125,33.7724609h-2.7041016c-0.5527344,0-1-0.4472656-1-1s0.4472656-1,1-1h2.7041016c0.5527344,0,1,0.4472656,1,1     S50.6230469,33.7724609,50.0703125,33.7724609z"/></g></g><g><g><path d="M43.0917969,23.4541016c-0.2558594,0-0.5117188-0.0976563-0.7070313-0.2929688     c-0.390625-0.390625-0.390625-1.0234375,0-1.4140625l1.9121094-1.9121094c0.390625-0.390625,1.0234375-0.390625,1.4140625,0     s0.390625,1.0234375,0,1.4140625l-1.9121094,1.9121094C43.6035156,23.3564453,43.3476563,23.4541016,43.0917969,23.4541016z"/></g></g><g><g><path d="M25.6630859,40.8798828c-0.2558594,0-0.5117188-0.0976563-0.7070313-0.2929688     c-0.390625-0.390625-0.390625-1.0234375,0-1.4140625l5.4794922-5.4794922c0.390625-0.390625,1.0234375-0.390625,1.4140625,0     s0.390625,1.0234375,0,1.4140625l-5.4794922,5.4794922C26.1748047,40.7822266,25.9189453,40.8798828,25.6630859,40.8798828z"/></g></g><g><g><path d="M32.7734375,31.5400391c-0.5527344,0-1-0.4472656-1-1v-8.0898438c0-0.5527344,0.4472656-1,1-1s1,0.4472656,1,1v8.0898438     C33.7734375,31.0927734,33.3261719,31.5400391,32.7734375,31.5400391z"/></g></g><g><g><path d="M32.6796875,36.0107422c-1.7851563,0-3.2382813-1.453125-3.2382813-3.2382813s1.453125-3.2373047,3.2382813-3.2373047     s3.2373047,1.4521484,3.2373047,3.2373047S34.4648438,36.0107422,32.6796875,36.0107422z M32.6796875,31.5351563     c-0.6826172,0-1.2382813,0.5546875-1.2382813,1.2373047s0.5556641,1.2382813,1.2382813,1.2382813     s1.2373047-0.5556641,1.2373047-1.2382813S33.3623047,31.5351563,32.6796875,31.5351563z"/></g></g></g></svg>
