<svg xmlns="http://www.w3.org/2000/svg" xmlns:xlink="http://www.w3.org/1999/xlink" version="1.1" x="0px" y="0px" viewBox="0 0 512 640" style="enable-background:new 0 0 512 512;" xml:space="preserve"><title>location-smartphone-phone-mobile-device</title><g><path d="M351.7,1H160.3c-25.1,0-45.5,20.4-45.5,45.5v418.9c0,25.1,20.4,45.5,45.5,45.5h191.4c25.1,0,45.5-20.4,45.5-45.5V46.5   C397.2,21.4,376.8,1,351.7,1z M134.8,104.1h242.5v306.3H134.8V104.1z M160.3,21h191.4c14.1,0,25.5,11.5,25.5,25.5v37.5H134.8V46.5   C134.8,32.5,146.2,21,160.3,21z M351.7,491H160.3c-14.1,0-25.5-11.5-25.5-25.5v-35.1h242.5v35.1C377.2,479.5,365.8,491,351.7,491z"/><path d="M252.6,63.4h39.8c5.5,0,10-4.5,10-10s-4.5-10-10-10h-39.8c-5.5,0-10,4.5-10,10S247,63.4,252.6,63.4z"/><path d="M275.9,449.4h-39.8c-5.5,0-10,4.5-10,10s4.5,10,10,10h39.8c5.5,0,10-4.5,10-10S281.4,449.4,275.9,449.4z"/><path d="M219.7,63.3h7c5.5,0,10-4.5,10-10s-4.5-10-10-10h-7c-5.5,0-10,4.5-10,10S214.1,63.3,219.7,63.3z"/><path d="M256,166.3c-42.2,0-76.5,34.3-76.5,76.5c0,56.4,68.4,99.6,71.3,101.4c1.6,1,3.4,1.5,5.3,1.5c1.8,0,3.7-0.5,5.3-1.5   c2.9-1.8,71.3-44.9,71.3-101.4C332.5,200.6,298.2,166.3,256,166.3z M281.5,240.3c0,14.1-11.5,25.5-25.5,25.5c0,0,0,0,0,0   c-6.8,0-13.2-2.7-18.1-7.5c-4.8-4.8-7.5-11.2-7.5-18.1c0-6.8,2.7-13.2,7.5-18.1c4.8-4.8,11.2-7.5,18.1-7.5c0,0,0,0,0,0   c6.8,0,13.2,2.7,18.1,7.5C278.9,227,281.5,233.4,281.5,240.3z"/></g><text x="0" y="527" fill="#000000" font-size="5px" font-weight="bold" font-family="'Helvetica Neue', Helvetica, Arial-Unicode, Arial, Sans-serif">Created by AomAm</text><text x="0" y="532" fill="#000000" font-size="5px" font-weight="bold" font-family="'Helvetica Neue', Helvetica, Arial-Unicode, Arial, Sans-serif">from the Noun Project</text></svg>